<?xml version="1.0" standalone="no"?>
<!DOCTYPE svg PUBLIC "-//W3C//DTD SVG 20010904//EN"
 "http://www.w3.org/TR/2001/REC-SVG-20010904/DTD/svg10.dtd">
<svg version="1.0" xmlns="http://www.w3.org/2000/svg"
 width="2000.000000pt" height="2000.000000pt" viewBox="0 0 2000.000000 2000.000000"
 preserveAspectRatio="xMidYMid meet">
<metadata>
Created by potrace 1.11, written by Peter Selinger 2001-2013
</metadata>
<g transform="translate(0.000000,2000.000000) scale(0.100000,-0.100000)"
fill="#000000" stroke="none">
<path d="M3639 19846 c-2 -2 -23 -6 -46 -10 -230 -31 -498 -213 -647 -440
-280 -427 -250 -892 82 -1296 52 -63 173 -185 217 -219 60 -46 339 -314 670
-646 371 -371 518 -524 800 -830 17 -18 46 -50 66 -71 38 -42 268 -300 359
-404 132 -150 266 -306 414 -485 87 -104 166 -199 175 -210 9 -11 79 -99 155
-195 77 -96 156 -195 176 -220 61 -75 430 -565 546 -725 176 -244 529 -752
599 -863 6 -9 53 -81 105 -161 96 -147 226 -351 245 -383 6 -9 26 -43 46 -75
217 -349 518 -865 665 -1140 20 -37 50 -93 67 -123 96 -173 277 -527 277 -540
0 -7 -20 -45 -44 -84 -183 -297 -262 -569 -219 -759 18 -82 42 -123 116 -199
139 -143 307 -218 497 -221 95 -1 128 1 212 18 21 4 28 1 34 -17 3 -13 14 -41
24 -63 42 -97 71 -167 110 -265 23 -58 48 -118 55 -135 39 -87 222 -576 292
-780 123 -358 260 -790 279 -880 2 -11 8 -31 14 -45 15 -38 150 -580 150 -604
0 -33 102 -236 152 -301 113 -149 183 -218 280 -276 243 -146 519 -92 750 146
40 41 128 175 128 195 0 9 4 20 9 25 28 30 55 176 55 305 1 113 -4 143 -59
360 -26 102 -49 194 -51 204 -2 10 -8 33 -14 51 -6 18 -12 41 -14 51 -3 10
-18 71 -36 134 -199 730 -458 1509 -752 2265 -11 28 -25 66 -33 85 -7 19 -19
49 -26 65 -7 17 -13 32 -14 35 -1 3 -5 14 -10 25 -29 72 -35 88 -33 90 2 2 53
31 113 65 61 34 115 65 120 69 6 5 36 22 68 40 32 17 181 102 330 188 150 86
285 164 300 172 16 9 36 21 45 26 9 6 40 23 67 39 382 222 1388 819 1560 926
13 8 57 35 97 59 40 24 96 58 123 76 28 17 79 50 115 72 94 58 183 115 280
177 46 30 86 53 88 51 2 -2 -3 -16 -12 -32 -20 -35 -106 -222 -106 -230 0 -3
-7 -21 -16 -41 -9 -21 -20 -46 -25 -57 -43 -101 -216 -583 -230 -643 -1 -4
-13 -38 -26 -77 -13 -38 -26 -79 -28 -89 -3 -11 -13 -47 -24 -80 -11 -34 -30
-95 -41 -136 -24 -82 -99 -356 -104 -380 -2 -8 -12 -44 -21 -80 -9 -36 -18
-72 -20 -80 -2 -8 -18 -73 -35 -145 -17 -71 -35 -148 -40 -170 -4 -22 -18 -83
-29 -135 -25 -111 -117 -568 -125 -622 -3 -21 -19 -111 -35 -200 -26 -148 -35
-204 -47 -293 -2 -16 -8 -55 -14 -85 -5 -30 -11 -71 -14 -90 -21 -148 -46
-333 -51 -370 -3 -25 -7 -58 -10 -75 -2 -16 -7 -52 -10 -80 -3 -27 -7 -61 -10
-75 -2 -14 -7 -56 -10 -93 -4 -37 -8 -76 -10 -85 -1 -9 -6 -51 -10 -92 -3 -41
-8 -86 -10 -100 -2 -14 -7 -59 -11 -100 -3 -41 -8 -88 -9 -105 -2 -16 -6 -66
-10 -110 -3 -44 -8 -91 -10 -105 -2 -14 -7 -68 -10 -120 -3 -52 -8 -106 -10
-120 -2 -14 -7 -77 -10 -140 -4 -63 -8 -131 -10 -150 -2 -19 -6 -89 -10 -155
-3 -66 -8 -149 -10 -185 -2 -36 -6 -123 -10 -195 -3 -71 -8 -170 -10 -220 -24
-492 -24 -1653 0 -2310 5 -150 17 -430 20 -490 2 -33 7 -121 10 -195 4 -74 8
-155 10 -180 3 -25 7 -88 10 -140 6 -113 14 -223 20 -305 3 -33 7 -94 10 -135
3 -41 8 -104 10 -140 3 -36 8 -92 10 -125 3 -33 7 -85 10 -115 3 -30 7 -84 10
-120 5 -66 8 -95 21 -205 10 -87 11 -92 28 -177 118 -560 406 -874 792 -863
219 7 419 124 553 325 122 181 179 421 175 731 -1 109 -11 257 -19 289 -2 8
-7 44 -10 80 -3 36 -8 81 -10 100 -4 36 -11 110 -20 215 -3 33 -7 76 -10 95
-2 19 -7 76 -10 125 -4 50 -8 106 -10 125 -2 19 -7 85 -10 145 -4 61 -8 128
-10 150 -4 43 -15 217 -20 330 -31 636 -39 929 -39 1555 0 450 6 791 19 1105
9 217 17 382 20 427 3 29 7 98 10 153 9 158 13 206 30 415 2 25 6 83 10 130 3
47 8 103 11 125 4 40 7 68 19 200 3 39 8 81 10 95 3 14 7 56 11 95 3 38 7 76
9 85 2 8 6 49 10 90 4 41 9 84 11 95 2 11 7 45 10 75 3 30 7 66 9 80 4 27 13
93 20 150 5 40 34 243 40 280 2 14 9 57 15 95 6 39 13 81 15 95 2 14 6 39 9
55 43 264 72 416 160 850 3 11 10 43 16 70 17 74 17 74 34 152 34 158 189 753
201 773 2 4 6 17 9 31 20 100 203 647 313 939 197 517 509 1161 703 1450 11
16 135 270 151 308 5 12 13 32 18 45 13 30 60 177 65 202 2 11 11 47 19 80 26
100 32 163 31 325 0 136 -3 167 -27 254 -97 354 -366 615 -709 685 -29 6 -64
14 -78 17 -33 7 -278 7 -310 0 -13 -3 -42 -8 -65 -11 -120 -17 -329 -88 -496
-169 -84 -40 -361 -206 -396 -236 -7 -5 -14 -10 -17 -10 -4 0 -123 -74 -286
-178 -187 -119 -344 -217 -354 -222 -6 -3 -36 -21 -66 -41 -75 -49 -540 -342
-562 -354 -18 -10 -199 -125 -318 -201 -36 -23 -153 -96 -260 -164 -107 -67
-211 -132 -230 -145 -19 -13 -161 -103 -315 -200 -154 -98 -316 -201 -360
-229 -44 -29 -105 -67 -135 -86 -30 -19 -57 -37 -60 -40 -3 -3 -23 -17 -45
-30 -22 -13 -86 -54 -142 -92 -57 -37 -103 -65 -103 -62 0 3 14 58 31 122 17
65 32 124 34 132 2 8 18 69 35 135 17 66 33 127 35 135 1 8 24 101 50 205 62
249 95 385 101 413 2 13 18 81 35 150 16 70 45 199 65 287 20 88 38 169 40
180 3 11 7 31 10 45 3 14 10 45 15 70 17 75 99 469 104 503 3 18 14 75 25 127
10 52 22 113 25 135 3 22 7 47 10 55 2 8 6 33 10 55 3 22 14 92 25 155 10 63
22 135 25 160 3 25 8 56 10 70 20 129 29 215 41 380 10 136 11 615 1 660 -4
19 -10 49 -13 65 -12 68 -56 188 -89 243 -65 112 -181 199 -291 219 -218 39
-576 -54 -803 -210 -53 -36 -153 -134 -198 -192 -69 -90 -134 -246 -149 -353
-3 -26 -8 -56 -10 -66 -2 -11 -6 -130 -9 -265 -4 -135 -8 -262 -10 -281 -2
-19 -6 -80 -10 -135 -4 -55 -8 -116 -10 -135 -2 -19 -7 -69 -10 -110 -8 -84
-12 -127 -19 -185 -3 -22 -7 -67 -11 -99 -3 -33 -7 -71 -9 -85 -5 -28 -22
-148 -31 -221 -7 -52 -15 -105 -20 -129 -1 -9 -8 -52 -14 -96 -7 -44 -16 -102
-21 -130 -18 -93 -40 -210 -45 -240 -2 -16 -18 -95 -35 -175 -17 -80 -33 -156
-36 -170 -16 -77 -60 -261 -109 -450 -63 -245 -57 -223 -85 -315 -12 -38 -23
-79 -25 -89 -12 -52 -38 -117 -45 -109 -4 4 -42 76 -85 158 -43 83 -85 164
-95 180 -18 31 -54 97 -130 240 -24 44 -46 85 -50 90 -4 6 -22 37 -40 70 -18
33 -44 80 -58 105 -14 25 -42 74 -62 110 -84 150 -134 237 -151 262 -11 15
-19 29 -19 32 0 4 -201 346 -250 426 -5 8 -28 47 -51 85 -175 289 -471 756
-678 1070 -91 138 -168 255 -170 260 -2 6 -7 12 -10 15 -3 3 -55 77 -114 165
-59 88 -138 203 -174 255 -89 129 -240 343 -250 355 -5 6 -60 82 -122 170
-126 176 -531 720 -595 801 -23 28 -50 63 -61 78 -11 16 -24 33 -30 40 -5 6
-26 32 -45 56 -89 115 -334 425 -345 436 -5 6 -21 26 -35 44 -34 45 -83 105
-295 360 -75 91 -158 190 -185 220 -26 30 -94 109 -151 175 -113 132 -140 162
-215 244 -28 31 -68 76 -90 101 -89 102 -245 250 -341 322 -205 154 -367 232
-568 273 -36 8 -240 17 -246 11z"/>
<path d="M16036 7968 c-140 -19 -289 -77 -401 -156 -63 -44 -172 -155 -215
-217 -51 -74 -108 -205 -131 -301 -24 -99 -29 -288 -11 -359 6 -22 13 -51 15
-65 10 -57 70 -190 116 -260 208 -311 566 -455 941 -376 199 41 419 194 532
371 105 163 143 298 142 500 -1 121 -4 152 -28 228 -55 184 -145 319 -301 453
-35 30 -175 114 -190 114 -5 0 -22 6 -36 14 -14 7 -39 17 -55 21 -16 5 -31 9
-34 10 -89 25 -248 36 -344 23z"/>
</g>
</svg>
