<svg xmlns="http://www.w3.org/2000/svg" xml:space="preserve" id="Layer_1" width="300" height="725" x="0" y="0" version="1.1"><style>.st0{fill-rule:evenodd;clip-rule:evenodd;fill:#f1f1f1}</style><path d="M181.2 246.2c2.6 0 5.2-2.1 7.8.1.3.3 1.6-.3 2.3-.8 1.3-.8 2.6-.6 4-.3.4 3.3.4 3.3-3.9 5.2-1 1.6-.6 3.8-1.8 5.6-1.4 2-3.3 2-5.5 1.2a25 25 0 0 0 13.7 4.9c-2.7 2.8-4.7 5-6.8 7-1.4 1.4-3.2 1.3-4.8.3l-2.3-2c-3 2.4-4.7 5.2-3.4 9.2.3 1 .9 1.2 2.2.9.5-1.3-2-3.7 1.2-4.3.8.3.4 1.2.9 1.7 2.6-4 5.5-5.3 8.6-4 4.3 2 5 4.2 3.3 11.8-4.7 4-9.8.4-14.7.6 2.3 3.2 1.8 8.2 6.6 9.6-1 4.1-1 4.1-6.4 3.6 0 4.9 1.6 10.2-4 13.7 7.5-1 8.2-.6 8 4.4-1 1.2-2.5 1.5-3.9 2.1-.1 1.1.5 2.3-.5 3.5-4.5.6-7.6-2.6-11.1-4.6 2.7 3.5 6 6 9.5 8.4 2 1.5 2.7 3 1.8 5.4-3.6 1-4.1-3.6-7.1-3.7-3.3-.1-4.5-3.4-6.6-5.4-2 1.3-1.6 2.8-.8 4 1.4 2 2.7 3.9 4.8 5.2 2 1.2 3.8 3 4.6 5.6 0 1.1-1.6 1.6-1.6 2.6-.2 2 3 2.5 1.3 5-2.5 1.5-5-1-5.6-2.4-1.7-3.5-4.9-5.2-7.4-7.7-2-2-4.2-4-6-7.4 0 4.3 1.1 7 2.8 9.6 2.5 3.7 5 7.3 7.2 11.2 2.2 4 1.5 5-3.4 5.1-4-4.3-7-9.2-8.3-15-.6-2.2-1.6-4.4-3.5-6.2a5.6 5.6 0 0 0-4 4.8c-.8 6.4-2.4 12.7-.5 19.2.7 2.5.2 5.4.2 8 .1 2.6-.3 5.2.9 7.6.4.9.2 2 0 3-1 6-1.3 11.9-2 17.7-.9 6.4-.3 12.7-1.1 18.9-.6 5-1.3 9.9-.8 14.8 1 8.9.4 18 2.8 26.8 2.1 8-4.3 13.9-12.3 11.7-2.3-.6-3.7-2.3-4.6-4.5a14.5 14.5 0 0 1-.7-9.5c.6-2 .6-4 .7-6.1.1-3 0-6 .8-9.1.7-2.8.5-5.9.1-8.7-.5-3.4 0-6.7 0-10 .2-16.1.4-32.2-.1-48.3-.1-4.6 1-9.4-.7-14-.4-.8 0-2 .3-3 2-6.7.1-13-2.6-19-.7-1.4-.4-3.6-2.8-4.3-1.5 1.4-1 4.5-3.8 5.3-1.5.4-2.2-.7-4-.7 1.9-4.4-.3-8.3 0-12.6-1.6-2-3.9-4-4-6.9-1-1-1.9-.6-2.7-.7-.7 3-.7 3 1.8 6.2-.2.8-.9.8-1.7 1 0 .9 1.6 1.3.8 2.3-.8 1.1-1.5 2.6-3 2.6-3-.2-5.6 1.7-9 .8.2-2 3-3 2-5.4l-3.1-.8c-1.8-3.1 2.6-3.4 2.2-5.8a3.2 3.2 0 0 0-2.5-2.8c-1.7-.3-3.6-.5-5.2 0-1.5.4-3.2 1.6-1.5 3.7.7.9 1 2 .1 2.7-2.9 2.8-1.5 5.1.7 7.4l.6 1.2c-.6 1.8-2.6.8-3.7 2-.9 9-2.3 18-2.3 27.1 0 3.5 1.8 6.7 1 10.2-1 5.4 1.4 11.1-.8 16.5 1.5 4.4.5 8.9 1 13.2.3 3.4-1.3 6.6-.6 10 1.4 7.7-.6 15.6 1.3 23.3-1.9 3.9.4 8-.6 11.9-.3 1-.4 2.2 0 3 1.3 2.8 1 5.8.8 8.6-.3 3.5-.4 7 .2 10.5.3 1.6-1.5 3.4.7 4.9.3.2.3 1.4 0 2-3.1 7.2-2.8 14.7-2.7 22.3.1 4.5-.2 9.2-.3 13.7-.1 3.9-.4 7.7-.9 11.5-.3 2.6 1.5 5.2 1 8-1.1 5.1 0 10.3-.7 15.5-.5 4.6-1.5 9.7.3 14.5.6 1.6-.8 2.8-.7 4.4.1 5 0 10 1 15 .2 1.2 0 2.5 0 3.7v23.1c.1 1.7-.5 3.5.8 5 0 2.3 1.2 4.6-.5 6.9-.6.8-.3 2 .1 3 1.3 3 1 6 .5 9-.6 4-1 7.9 0 11.8.5 1.9 0 4 0 5.9-.2 6.6 1 13.2 1.4 19.8.6 10.1.6 20.4 3.6 30.2.3.8.5 1.7.4 2.5-1.3 5.6.7 11 0 16.6-.7 5.6-2.2 10.8-7.5 13.8-6.8 4-14.5 2.5-20.3-4-2.7-3.1-4.8-6.7-3.9-11.1.5-2.6-1.5-5 0-7.5l.5-.5c-.9-2.6-.4-4.8.7-7.5a45 45 0 0 0 3-13.8c.5-7.8-.3-15.5 0-23.2 0-4 1-7.9.2-11.8l.2-.4-.2.4c-2.2-1.8-.8-4.5-2.3-6.5 1.7-.6 2 .5 3 1.5l-.9-7.2.3-.3c1.7-.3 2.2-1 1.2-2.6l-.6-.7c-1.7-2-1-4.3-1-6.4 0-7 0-13.9.2-20.8.2-6.6.8-13.2-1-19.8-.2-.8 0-1.7 1-2l.4 2.3c.7-1.1.3-1.8-.3-2.4-3.3-7-1.8-14.4-1-21.5.7-8 .8-16 .9-24 .1-14.2.3-28.4-.6-42.5-.1-2.8-1-5.5.2-8.3.4-1-.1-2.4-.4-2.8-1-1.3-1.1-2 0-3.4 1.2-1.4 1-3.5 0-5.3a10 10 0 0 0-.4-.4c.3-1.7.5-3.3.1-5.1-.6-3.6-.1-7.3-.1-11l.5-.4c.2-2.2-.2-4.4.3-6.7.6-2.6 1-5.7-1-8.4-.5-.7-.7-2.2-.2-2.8 3-4.8.6-9.2-.8-13.7l.3-1 .2-.2c.9-.7.7-1.3 0-2h-.1c-.5-1-.3-1.8-.1-2.9.3-1.6 2.2-3.6-.4-5.2-.4-.2-.4-1.8 0-2.3 2.5-3.3.7-6.8.5-10.1a33.7 33.7 0 0 1 0 0c-1-1-1-1.9-.3-3.2 1.8-3.1 1.9-6.3-.8-9 .3-1.5.9-2.7.9-4.1-.1-6.6.5-13.3-.2-19.8a97.2 97.2 0 0 1-.8-16.3c.3-6.4-.6-12.7-.7-19.1 0-1-1.2-1.6-2-2.3l-.7-.6v-.3l-.2.2-.8.7c-1-.6-.9-1.8-1.5-2.6 5.5-5.8 6.5-12.8 5.8-20.2v-3.6c.5-6.2-.6-12-4.1-17.3-1-.2-2 .7-2.9 0a.8.8 0 0 1 0-.9l.2-.2-.2.2c-.1.1-.3.2-.3.4l.2.6c.3.9.4 1.7 0 2.6-1 1.2-2.1.6-3.4.5-1.3 1.2-1.9 2.6-.7 4.7-2 .8-2.8 2.7-4.1 4.5-4.4-1.7-9.6.8-14-2.6 2.5-4.7 6.8-1.6 10.3-3.3.6-3.4 6-5.7 3.6-11-2.9 0-5.5.4-8-1-2.1 3.4 0 9.8-7 8.8-1.4-1.8-2.3-3.4-1.2-5.7 1.3-3-1-5.8-.6-8.8.1-.8-1.6-2.5-2.5-2.2-3 1-4.1-2-6.3-2.6l-.8-.6-.1-.3-.2.3-.7.6c-.8.7-1.6 1.2-2.7.7a.9.9 0 0 1 0-1l1-1 .3-.4-.3-.7-.3-.2.2.2c.3.4.3.7 0 1l-1 1c-.8 1-2.7-1.1-3.1 1.1l-.2.3.2-.2h3l1 1.3c-1.4 1.5-2.5 3.5-5 3.8l-2.1-1.1-.2-.2.2.3c-.7 2.8 1.4.6 2 1 .8.8 1.6 1.7 1.2 3l-.2.2H14l-.4-.2-.3-.2.2.3c-.7 1.8-2 1.5-3 .4-.7-.9-1.5-.2-2.1-.5l-.3-.2.2.3c.7 1 2.3 1.6 2.1 3.3-1.6.6-2.7-.2-3.6-1.4l-.6.8c-1.7 1.8-2.3-2.2-3.6-.8-1.3 1.3-2.4.8-3.6.1v-3l.7-.8.7-.6c.3 0 .5 0 .6.3.5 1.3 1 2.4 2.8 1.3-.9-.7-2-.4-2.7-1.3l-.7-.7a75 75 0 0 1-1.4-1.4v-1l.3-.4-.3-.6v-4.1c.8-.7.8-1.4 0-2v-8.3l1.3-.5-1.3-.6V165c3-.7 1.2-2.6 1.1-4l1.5-1.2 1.6 1c.3.5.7.5 1 .1l.3-.4-.3-.7c-1.4-1.3-1.5-2.7 0-4 .6 0 1.5.1 1.6-.1.4-.7.1-1.5-.5-2l-2.1-1.1-1-1-3.2-2v-4.2c3.2 0 6.5 2 9.6-.4-.3-1.2-1.4-1.7-2.3-2.4l-7.3-5.4v-3c1.5 0 2.1 1.3 3 2 1 .8 1.5 1.9 2.9 1.7l.7.7c.9 2.1 3.2 2.8 4.5 4.4l.8.7c.3.5.8.4 1.3.4l.7.6.2.3.1-.3.7-.6c1.6-1 4.2.4 4.7-2.4-1.3-.3-2.8-.7-3-3 1.8-1.3 4.6.2 6.3-1.5l.3.2-.2-.2-2.7-3c2.6-3.4 6-5.6 9.6-7.6l.6.6 1.2 1.6c.8-.4 0-2.2 1.8-1.8 1.6.4.8 1.9 1.3 2.8.7-.4.2-2 1.7-1.8.5.6 1.2.9 2.1.4l-2-.5c-1-2.4-3-4.8.4-7.1l1.2 1.7.7.6c0 .3-.2.5-.4.7-.8.7-.8 1.4 0 2.1l.3.2-.2-.2v-2l.6-.8.7-.6c.8.2 1.3 1.6 2.5.6l.6-.6c.7-1.2.8-1.4-.5-1.9-1.2-.4-1-1-.8-1.9l2.1-1 .5-.2.4.2.6 1c.3-.5-.3-.7-.5-1-.4-.5-.7-.5-1 0-.8.3-1.5.6-2.1 1-1 0-2 .2-2.8.3l-.7-.7-3.3-.8c-.3 2.2-.8 4.5-3.6 5.4-3-1-4-3.1-3.1-6.2l3-.5c-1.7-1-.2-2 .2-3.2-2.4.2-3 1.6-3.3 3.6-4.3 1.5-7.7.5-10.3-3.5-.5-4.8.5-9 5.8-11.2l.7.7c2 1.4 3.6 3 4.5 5.6 3.9-2.2 4.6-5.3 4-9.3-1.3-1.4-3.2.5-5-1C23.3 95 21 91.1 23 87.3a33 33 0 0 0 4.2-12.8c4.1.2 5.3 1.3 6 5.5 3.2-.5 4.4 3.9 8.4 3.2.3-1.3-1.3-4.5 2.6-3.7 1.1 1.3 1.2 3.2 2 5-3 3.4-6.7 6.1-6.4 11.1l-.6.7c-3-.3-3.5 2-4.7 3.8 1.6 1 2.7-1 4 0l.2.2-.2-.3c-.3-.5-1-1-.8-1.8 2-1.2 2.7 1.8 4.3 1.5 2.4 0 2.3-2.3 3.4-3.4l.7-.7c1.8-2.3 4.6-1.9 7-2.7.3.2.5.7 1 .5l-1-.6a4.9 4.9 0 0 1 0-3.4c.6-1 1.5.3 2.4-.3.2-1.1 1.6-2.7-1-3.1l-.8-.7c.5-.3.9-.8 1.3-.8 3.6 0 5.2-2 5.3-5.4h-1.8c-1.1-2.6 2.4-1.3 2.5-4-.4-2.4-6.2-3.7-3.7-8.3.3-1 1.7-.7 2.5-1.5-3.3-2.8-4.6-6.8-6.7-9.7 1-2.7 3-1.4 4.2-2 .5-1.1-1-1.6-1-2.6 1.8-3.2 3.4-.3 5 .2 1.4-.2 1.9-1.4 2.8-2.2l-.8-3c1.8-1.8 3.6-3.3 6.3-2.5.3 1-.6 1.3-1 2-1.4 1-2 2.5-2.7 4.1 1.4-.1 3.2 1.8 3.8-1l1-1c1.2-1.7 1.5-3.3-1-4.2 1-6.2 2-12.5.5-18.4 1.2-3.3 5-2.4 6.2-5.1 1.2.8 1.1 2.4 2.6 2.5-.8-3.4-.8-6.7 1.1-9.8l.3-.3-.3.2c-1.5 0-2-1.2-3.2-2.1 1.4-1.2 1.6-2.6 1.5-4 1-1.4 2.6-.6 3.8-1 .4.7 1.2 1 1 2l-.2.3.2-.2 1.3-.6c-.3-1.2-1.4-1.2-2.2-1.6-.5-1.9-.7-3.7 2-4 .2.3.4.6.8.1l.4-.3c.3 0 .6 0 .8.2l.4.2-.3-.3c2.3-2.2 4.7-1 7.1 0l.3.2c.9.9 1.9.7 2.9.3 2.1-.7 4-.3 5.2.4 2 1.6.6 3.1 1 4 1 1.8 2.4-.1 3.4.8 1.6 1.4 1.1 3 .8 5 1.2 0 2.5-1 4.1 0-.7 4.7 2.6 7.6 5.8 10.6.9.8 2 1.5 1.4 3.3-3.7-.1-4.8-4-7.5-5.3-1.4-.8-2.8 1.5-4.3 0-.5-1.1.9-1.6 1.2-3-2.1-.7-3-3-4.8-5-1.2 2.6-.3 5.4-2.6 7.1-1.6 1-3.7-.2-5.4.9l-.7.6c-2.2-1.4-1.7 1.5-2.8 1.8l-.2.2.3-.2 1.7-.4.6.8c1.5 1.3.8 3.1 1.2 4.7 1 .1 2 .1 2.4 1.4-.4 1.4-1.7.7-2.7 1-.6 1.5-1.5 3-1.6 4.9 1.3 0 1-1.6 2-2 1.2.5.4 2 1.2 2.6l.7.7c-1 2 0 3.8 1 5.5l-.6.7c-1.4-.3-1.4.9-1.8 1.6l-1.1.6c.6.3.8-.3 1.1-.5.8-.4 1.2.4 1.8.6l.7.8c0 .2-.2.5-.4.6l-.2.3.2-.2.7-.8.7-.6 1.4-1.4.7-.7c2.4 0 1-3.7 2.5-3.7 2.1-.3 2.7.6 3.3 1.3.4 4.7-5.5 5.9-5.9 11 3.4-2.7 5.3-6.1 8.8-6.8 1-1.5-.7-3 1-4.3 2.9-1 2.8 3.3 5.3 3.4.5 0 .5 1.5 0 2.2-1.6 1.2-2.3-1-3.6-.9-.1.3-.4.7-.3.9 2.6 4.6 1.9 7.3-2.6 9.2-.2 1.7 2.3 2.4 1.6 4.5 2-2 4.2-2.6 7-2.5-1.1-4.1 3.7-6.7 1.5-10.5 1-.6 1.7-.5 2.8-.1-.1 4 1.4 8.4-1.1 12.5l.3.2.5.1.7.7-.4 2c1 .7 1.5-.9 2.5-.9 1.1-2 0-4-.5-6 4.7-4.1 1.6-8.5.4-13-4.8 2.8-4.5-3.5-7.6-3.8.4-2.3 1.2-3.9 4-3.7l.6.7c-.5 2.3 1.1 2.8 3.2 3.3 0-1.5 2-2.8-.1-4.3l-.6-.8c-4.4-3.5-4.7-4.1-3.2-9 2.7.8.9 5.4 4.5 5.3.4.8.3 2 1.5 2.2 1.8-1.8 2.6-4 2.7-6.3 1.5-1 3-2 3.2-4.1 1-.6 2.7.2 3.2-1.6-1.7-.7-2.4.6-3.3 1.5-2.6.2-3.7 1.5-3.2 4l-1.7 3.1c-.5 1.2-1.2 1.5-2.3 1.1-.4-2.5-.8-5 .3-7.5.7-1.6.4-3-.8-4.7-1.5 0-3.4-.1-4.8-1.7-.7-2.5 1.1-3.5 2.7-4.6 2.8-.1 2.2 2.8 3.5 3.7 2.3-.7 2-4.5 5.7-3.6 1 2.5 2.8 4.7 5.6 6.2a94 94 0 0 1-1-16c3.8-.3 3.8-.3 5.5 4.8-.3 1.6-1.9 1.6-3 2.2.5 3.3 3.7 5.8 2.9 9.2-.7 3-1.8 6-4 8.5 4.6-3.3 4.6-3.3 5.5-8 3.4 1.5 5.4-3 8.8-1.9l.2.2c.5 3.3-1.7 5.6-3.3 8.1l-.2.3.3-.2a4 4 0 0 1 2.9.1c-.3 1.8 2.8 3.3.2 5.5 1.8.7 2.9-.4 4.1-1.3 1.7-1.3 2.4-3.9 5.4-3.3 1 .2-.6-1.4.3-2 2-1.3 3.9-3 6.6-2.7.8 1.7.6 2.8-1.2 4.2-1.7 1.4-4.4 2.1-4.5 5 4.3 2.5 8.6 2.4 13.3 0 .8 2.6 3.2 2.7 5 3.7 1 .4 2.5-.9 3.4-2.3 0-1.4-1-3.2.6-4.5l.7-.7c.8 0 1.6.2 2.3.3.8 1.1.5 2 .3 3s0 2 1.2 2.3c3 .7 2.2 2.7 2 4.5-2.1 1.5-3.3-.1-4.5-.9-2.1 1-1 3-2 4.2-.8.7-1.8.4-2.8.2l-.3-.2.2.3c.2.9-.6 1-1 1.5.2 2 2.6 1.9 3.4 4.2-5 0-9.2 1.8-13.2 5-.1 1.5 1.6 3.9-1.3 4.8-1.3.4-2.4 0-2.4-2-2 1.3-2.2 4.2-6 3.9 2.4 1.5 4 .2 4.9 1.6 0 5.4-5.7 2.2-7.6 5 .9 2 2.3 2.8 4.6 2.3 1.7-3.2 3.4-6.4 7.2-7.9a5.1 5.1 0 0 0 3.1-3.1c.9-2.5 3.2-3.3 6-3 1 2.6-.5 4.3-1.8 6-1 1.7-2.7 3.4-.7 5 9.5-2 18.8-3.5 27.7-4 1.4 1 1.3 1.9 1 2.8-1.7 1.5-4 .3-6 1-.4 1 .3 1.8.4 2.7 1.9 1.6 4.2.6 6.6 1-.3 3.8 2.5 5.4 6.2 8-2-3.4-3.1-6 0-8 2.6 2.7 3.2 4.6 3.3 10.5 3.6-1.3 6-4.7 10-4.7l.8.6-.2 4.3-3.3 3.6-.2.3.2-.2 2.8-.2c.2 2 2.7 3.9.2 6.2 1.3.8 2.3-.1 3.1-.8 2.2-1.7 3.7-4.1 6.5-5l-.4-1 .7-.6c1.9 0 2.5-1.6 3.7-2.6 2.8-2.3 4-2 6.9 1 .3.3 1.4 0 1.6 1.3-4.1 1.7-9.4 2.1-11.7 7.4l10.8 3c1 1.4.5 3.2 1.2 4.6-2.5 1.3-3.9 3.5-5.7 5l-4.6.7c-.2 2-1.2 3.6-2.8 4.4-1.4.7-1.7 2-2.6 3l-.6.6-1 1.2c2 .5 3.7.2 5.3-1.1 3.5-3 4-3.5 6.4-8.6 5.1 0 7.1-4.2 10-7.2 1.5-.4 3-.6 4.4.3.3.7.6 1.7.1 2-3.6 2.1-4.8 6.5-8.6 8.5-2.2 1.2-4 3.2-2.8 6.3.5 1.3-.7 2.1-2 2.5-1.6.5-1.8-.8-2.4-1.8-2.7 1.7-1.2 3.9-.8 5.6-.6 4.9-5.9 1.8-7.6 4.8 1 1.9 2.4 2.7 4.7 2.1l1-2.1c4.5 3.1 7-3 11-2.2.9.2 1.3 1 2 2 1.9-2.8 5-.7 7.4-2.1l.5-.5c4.6.3 9.1-.8 13.6-1.7 2.2-.5 4.4-.5 6.4 0 2.5 3.7-3.4 2.7-2.5 5.5.8.6 1.3-1 2.4-.6l2.6 3.6c-.7 2.2-3.2 3.1-4.1 5.2 3.8.4 4.6 3.6 6 6.2 2.7.2 3.8-3 6.5-2.6l.2.2c.3.6 1 1.3.9 1.7-.6 1.9-.1 3.3 2.3 5.2-3.7-.2-5.9 2.8-8.5-.4-1.3.9-.6 3-2.2 3.7l-1 .5c.5.3.8-.2 1.1-.5 1.3-.4 2.6-.3 3.8.1.5 3.3.5 3.3-.8 5.8-1.2-.2-2.5-.1-3-1.8l.2-.2-.2.2c-1.9.6-3.7 0-5.4-.5-.7 1-.7 2-.1 2.9 1.7 1.1 3.2-.3 4.8-.4.6 2.6 0 3.9-2.2 4.2-2.2.4-4.4.3-7.1.4.9 1.8 2.1 3.4 1.5 5.6l-5.3 1.3c-1.3-1.2-1.9-3-3.9-3.8-1.3.7-.6 3.7-3 3.6-.3-.3-.4-.7-.6-1-.3.5.2.7.4 1 2.7 1.5 3 3.5 1.8 6.2-4.2-.6-4.5-5.6-7.9-6.6-.7-1.8 3.3-1.3 1.7-3.3-.3-.6-.5-.5-.9-.3-1.5.5-2.2 2.4-4.2 2 .4 1.3 1.7.6 2.4 2.1.9 2.3-1.2 6 2.2 8.2-2.9 1.3-5.7.7-12.5-2.6-1.2.3-1.5 2.5-3.3 1.6l-.3-.3.2.3c-1.9 1.3-3.5 3.2-6.1 3v-2l1-1 1-1 .5-.2.5.2.3.2-.2-.3c-.4-.3-.7-.4-1.1 0l-1 1-1.1 1c-.8.8-.9 1.5 0 2.2.6 2.1-.1 3.5-2.2 4.5-1.8.8-3.9 1.4-4.8 4 2-.7 3-3.5 5.5-2.1.4 2.3-1.3 3-3.2 3.5.7 1 2.6-.5 2.6 1.6-.5 1.7-2.5.6-3.5 1.6-.5.7-.4 1.5 0 2.6 3.3-.6 6.2 0 6.7 4-1.5 2.8-5.1-2.1-5.9 2.6-1.8-2-3.5-3.2-5.8-2.2-.8.6-.5 1.5-.4 2.7 5 1.9 10.2 3.8 15.8 2.2 2-.6 2.9.2 3.9 1.4l-.7.6h-2l2.5 4.7c-3.1 6.7-6.3 7.5-12 3l-4.8 1.3c-.6-.6-1.2-1-2.2-.5l2.1.5c1.1 1.3 3.2.1 4.5 2.2-2.9 1.2-6 .5-9 1.5-.2.9-.6 1.8-1 2.9 1 2.7 5 2.6 5.6 5.7 0 1-.8 1.7-2 2.3-3-1.3-5.2-5.1-9.4-3.8l2.5.6c2 1.7-1 3.4.4 4.9 3-1.3 3-1.3 5.8 0 1.9 1 3.6 2 5.8 2.1 1.5.2 2.4 1.4 2.2 3-.2 1.6-1.2 2.4-2.8 2.5-2.3.1-4.7-.3-6.6 1.8-.6.7-2.4.6-3.3-.6-1-1.4-3-1.9-3.6-3.8-.4 2.7-1.5 4.7-4.2 5.2-.3 4.3 3.2 1.2 4.6 2.7l1.4 5.2c0 .8-1.9 1.4-1.8 3.2 2.6-.5 5-.7 7.6-.6 1 4.3 3.7 8.1 2 12.8-.9 2.3-1.2 4.7-4 5.6-3 1-6 2.2-9.4.9-3.9-1.6-4.3-2.1-6-7.4-.5 0-1 .2-1.2.7 2.7 5 5.8 21 5.3 26.9-3.8 1.8-3.8 1.8-6.5 0 2.7-3.7 1.8-7.8.6-11.9-1.2-1-3 0-4.1-1-1.3-2.3-.3-3.8 1.3-5 .2-1.7-1.1-2.9-1.2-4.3-1.2-.8-2 .8-3.3 0-1.8-4 3.8-6 2.8-9.7a5 5 0 0 1 4.5-.1c2.2-1 .9-3.1 2.1-4.2 1.6-1.2 3.9 1.2 5.4-1.1-1.9-1.6-3.6-.7-5.4 0-2.1 1-4.5 4.5-6.3-.2-3.6 1.3-4.8-1.8-6.8-3.5-1.1-.8-1-2-1.1-3.3l.7-.6c3-.5 4.2 2.4 6.8 4l-2.5-9A44 44 0 0 0 189 231c-3.6.4-5.6 4-8.7 5.3 2.1 3 3 6.3.8 9.8l-1 1c-1.4.6-3.1-.2-4.4.7-.8 4-2 5.7-3.6 5-1-.8 0-2.5-1.4-3.1-.9-.2-1.8 1.2-2.8 0-.6-1-.7-2 .7-2.8 3-1.6 4.4-4.2 4.1-7.8 1.9-.5 3-1.9 4.4-3-1.6.5-3-.6-4-.7-1.6 2.3-2.9 2.1-4.3.4l1-.5c-.5-.3-.8.2-1.1.5-2.6.5 0 1.7-.3 2.5-.3 1-1.9.6-2 1.2-.5 4-4.3 6.3-5.6 10.2 3 .5 3.7 3.6 6.4 4.8 2.8 1.3 5.4-2.2 7.7.6.1 2.3-2.6 2.8-3 5 2.1-2.5 5-3.5 8.1-4.7-.8-1.2-1.2-2.3-2-2.8-1-.8-1.2-1.6-1-2.6.5-1.6 3.3-.7 3.2-2.9l1-1zm-127-141-.3-.3.2.3.3.2-.2-.2zm-4.2 1-1 1c-.4.5-1.9 0-1.3 2l1.3-2 1-1 1-1c.6-2.4-2.6-4-1.7-5.4L49 101c-.2.7-.7 1.2-1.1 1.8 1.4.5 1.1 1.9 2 2.4.2.3.2.7 0 1zm71.8-29.9-.2.3.3-.2 1-1c1.4-.5 2.4-1 .5-2.4l-.6 2.3-1 1zm-73.9 37c-.3-.3-.7-.3-1 0-1 1-.8 1.8.4 2.5.2-.5.4-1 .7-1.3l.2-.4c0-.3-.2-.5-.3-.7zM89.6 26l-.2.2.2-.1.2-.3-.2.2zm-3.2 5.2-1 1-.2.2.3-.2 1-1 .5-.1.4.1 1 1c.3.4.3.7 0 1l-2 1-1 2.1-.2.3.2-.2 1.1-2 2-1.1.3-.4c0-.3-.2-.5-.3-.7l-1-1a.7.7 0 0 1 0-1c.2-.3.8-.6.5-1.1l-.5 1-1 1zm5.3-13.4-.3-.2.2.2.2.2-.1-.2zm-2.1 30.9-.3-.2.2.2.3.2-.2-.2zm3-5.2-.1.2.2-.1 1-1c.8-1 1.4-2.1.2-3.2-1.9 1 .2 2-.2 3.1l-1 1zm-16.6 3-.2.3.3-.2s.3-.2.2-.3l-.2-.7-.5-1.3c-.5 0-.8.4-.9.8l1.3.6c.2.3.2.6 0 .9zM1 260.6l-.2-.2.2.3.3.2-.2-.3zm7.4 8.3.2.3-.2-.3-.2-.2.2.2zM74 65.1l1-.5c-.5-.3-.7.3-1 .5l-.3.2.3-.2zm86.4-30.9c.2-.3.8-.5.5-1.1l-.6 1-.2.3.3-.2zM96.8 278c-.7.7-.8 1.4 0 2.1v1c-1.1.2-1.6 1-2.2 2-2.8 4.4-3.3 9.5-4 14.5l-.3.4.3.7c.2.2.3.4.3.7l-.5.5c-.8 1.4-1 2.4 1 2.6l.5.5c0 .3 0 .6-.3.8-.4.5-1.2.7-1 1.7 1-.3.7-1.2 1.1-1.6 2.3 1.2 4.5 2.6 7.3 2.4 1.3-2.8 2.5-3.4 4-2 .5 1 .1 2 0 3 1.7 0 2.1 2 3.6 2.2l2.8-1.7c-1.7-.7-4-.9-3.2-3.2.6-1.5 2-1 3.1-.8.5.5.2 1.8 1.5 1.4.4-1.3-.9-1-1.4-1.4 0-.9-.4-1.8-.2-2.6 1.5-5.4-.3-10.6-1.2-15.9-.4-2.1-2-3.7-4.1-4.8-1-.4-2.3-.8-2.5-2 0-.8 2-.7.8-2-1.6.4-2.9.9-3.2 2.7-.2 1-1.2 1-2.1.9v-2l.2-.3-.3.2zm138.5-114.2-1 2c-.3.4-.8.6-.5 1.2l.5-1.1 1-2 .3-.3-.3.2zM86.4 22.8c-.3-.3-.6-.3-1 0l-1.1.6c.6.3.8-.3 1.2-.5l.4-.1.5.1.6 1c.2-.5-.3-.7-.6-1zm-2-10.2c.3.2.5.8 1.1.5l-1-.6c-.3-.3-.4-.7-.6-1-.3.5.3.7.5 1.1zm-29.2 96.8.5 1c.3-.5-.2-.8-.5-1l.1-2c-1 .8-.6 1.4-.1 2zM78 29l-1 1c-1.6.8-2.4-.9-4-1 0 2.2.2 4.3 0 6.5 0 1.7.5 3 1.9 3.9.2.3.2.6 0 1l-.2.2.2-.2c.8-.8 2 .6 2.7-.3.2-.7 0-1.3-.6-1.8l-.3-.2.2.2c-.1 1.4-1 1.2-2 1 0-1-1-1.7-.7-2.8 1-.5 1.7-1.3 2.8-1.2l.2.2-.2-.3a.7.7 0 0 1-.4-.7l.7-.7c2.7-.2.9-2.6 1.8-3.7.2-.4.6-1 .5-1.3-.6-.9-1.1-.1-1.6.2zm153 142-.2-.2.2.3v1.6c1.3-.5.5-1.1 0-1.7zM81.4 17.7l-.3-.2.2.2 1 3.1c-.2.4-.7.6-.4 1.1l.5-1h1l.3.2-.2-.3c-.4-1.3-1-2.3-2.2-3.1zm-5.2 36c1-.7 1-.7.3-1.8l-.4 1.8-.2.3.3-.2zm121.8 60.8 2.3-.6c-1.4-1-1.4-1-2.4.6l-1.7 1.2 1.7.8.2 2.7c.8-.4 1.4-.8 1.5-2l-1.6-.7v-2zm-42.7 39.1c.7-.7 1-1.6 1-2.7-2 .2-1 1.7-1 2.7l-.3.2.3-.2zm57.2-41.2-.2-.2.2.2c.4 1 .6 2.2 1.7 2.8.4-1.4 0-2.5-1.7-2.8zM126 69.2c1 .9 2 1.2 3.4 0-1.2-.6-2.3.6-3.3 0-.3-.7-.3-1.4 0-2l.2-.3-.3.2c-1 .4-1.7-1.3-2.7-.2v1c.7.8 2 .3 2.7 1.3zm25.7 37.3-1 2.3c2.7 1 3.8-.8 4-2.6 0-1.6-1.3-1.7-2.3-.3l-.7.6zm75 56.6-1 2.3c2.6 1 3.8-.8 3.9-2.6 0-1.6-1.3-1.7-2.3-.3l-.7.6zm-9 4.9c2-2.8 5.2-4.7 5.9-8.6a6 6 0 0 0-4-.1c1.6.8 1.6 2 1 3.2-1.2 1-2.4 0-3.6.5 1 1.6 1.2 3.2.6 5l-1.1.5c.6.3.8-.3 1.1-.5zM159 52l-1 1.1c1 .6 2.3.6 2.5 0 .7-1.6 1.7-2 3.6-2.1 1.6-.2 3.1-1.8 3.6-3.5.4-1.3.6-3-1.7-3.7-1.1 3.3-4.7 4.6-6.3 7.6l-.7.6zm85.7 93.3-3.1.9-.5-7c-1.1-1.2-2.5-.6-3.6-1.2-1-.6-2-.9-3.2-.4 2.6.8 5 1.7 6.3 4.3-.4 3.2-2.7 6.3-.6 10.2 2-2 4.1-3.8 4.8-6.7l2-.5c-.9-.5-1.5-.2-2.1.4zm-78 74.2.2.2-.2-.3c-1.3-2.2 1-3.2 1.9-4.9-2-1.6.3-6.2-4.5-6-.6 2.3 2.4 2 2.2 3.5-1.2 1.7-2.3 1.7-3.3.2l-2.2 5.1c2.6-.8 3.5 2.4 5.8 2.2zm3-130.8c-1.4-.1-2.5 2.1-4.3.2.7-1.3.7-3.1 2.5-4 1.7 0 3.3 1.3 5.6-.7-5.4.3-9.2-3.5-14.6-3.3 3 1 5.4 1.8 6.8 4.5-1.1 2-.4 4.9-2.5 6.8 1.4.5 1.4 2 2.4 3.4 1.3-2.8 4-4 4.2-6.8l2-.5c-.8-.5-1.5-.2-2 .4zm19.9 16.4-.6-1c-.3.5.3.8.5 1 2.5 1.3 2.8 3.2 2 5.6 0 .2-.4.4-.6.6-1.1.4-1.4-.8-2.1-1.1-1 1.1-2.7 1.2-4.3 2.2.9 1.2 2 2.2 2 4 1.8-2.3 4.5-2 6.7-2.7l.2-1.8c.7-3.7.7-3.7 5-4.1 1.8-.2 2.7-1.3 3.1-2.6-1.9-2-3.6.6-5.6-.3a6.3 6.3 0 0 0-3.2-3.5c-1.3 1.3-.8 3.7-3.1 3.7zm69.5 20-.7-1.1-14.5 2.2c3.4 2.9 7.9 1.4 11.8 3.5 0-2.5.4-4.5 3.4-4.6zm-67.3 91.1c-.6 2.1-.4 3.8 1.6 5.4 2 1.6 3.5 3.8 1.8 6.7-.4.8-.5 2 1 2.5 1.7-5.8-1.8-10-4.4-14.6zm44.3-65.6c-.5 2.3-2.9 3.1-3.5 5 1 1.1 2.6-.7 3.1 1 2-1.6 2.5-3.5.4-6zm-8.8 4.2c1.2-1.8 3-3 4.2-4.8-1.2-.4-1.8-1.5-3.5-.7-1.3 1.3-.5 3.4-.7 5.5zM161.7 94l-4.1 5.2c1.5-.3 2.5.4 3.5.8 1.2-1.6 1.4-3.4.6-6zm-7.8-1.8c-2.2 1.8-1.9 4-1.2 6.3.7-2 2.7-3.2 3.8-5L154 92zm38.8 39.9 2 1.8c1-1.6 2.4-2.3 4.4-2.2-3-1.4-3-1.4-6.4.4zM139 59c-.5-3.7-.7-3.8-3.4-2.3.5 1.4 1.8 1.8 3.4 2.3zM247.5 152c-1.3 1-2.5 1.7-3 3.1 1.7.4 3.2.3 4-1.5l-1-1.6zm-75-56.6c-1.3 1-2.5 1.7-2.9 3.1 1.7.5 3.1.3 4-1.5l-1-1.6zm69.4 37.5c-2.6-1.5-2.6-1.5-5-.7 1.6 1 3.4.2 5 .7zm-64.3-63.3c-.6 2.7 1.4 2.5 3 3.8-.8-2-1-3.5-3-3.8zm0 139c.5-2.9-.4-3.7-2.6-3.2l2.5 3.3zm-33-106.1c.8.5 1.3 1 2 1.2.6.2 1.6.5 1.8-1-1.1-.5-2.2-.4-3.9-.2zM96 51.2l-1.8-.9-.8 1.8c1.2.6 2 .3 2.6-.9zm-4-20.4-1-2c-.4.3-1 .7-1 1-.2 1 .7 1 2 1zm146 132c-.6 1.9-.6 1.9 0 3.3v-3.3zm-55.3-60.6c.6-.5 1.7 0 2.1-1.5-.9.6-1.8.4-2 1.5zm68.6 60.4c-.8 1-.8 1-.2 1.8.6-.6.6-1.2.2-1.8zM82.7 26.9c.8.3 1.5.4 2.3 0-.8-1-1.6-1-2.3 0zm59.4 79.3c.3 1 1 .8 1.8.5-.7-.2-1-.9-1.8-.5zm41.8-38.8c-1.1.2-1.7.3-1.8 1.2.8.3 1-.3 1.8-1.2zM92.5 4.9c-1 .6-1.6.8-1.4 1.6.8.1 1-.4 1.4-1.6zM54.7 96.4c-1.3 0-1.6.4-1.8 1 .8.4 1.1-.3 1.8-1zm35.8-54.7c-1 .8-1.7 1-1.5 1.9.8 0 1-.5 1.5-1.9zm120.3 36.1.7-.5c.3-.3.2-.6-.3-.6-.4 0-1-.2-1 .4 0 .2.4.5.6.7zm-125.9 23c.3-.9 1.4-.8.6-1.7l-.4-.3c-.8.4-.3 1-.2 2zm95.8 2.7v-.5l-.7.2s-.1.4 0 .4c.2.2.5.2.7-.1zm-93.2-93 .3-.3c-.2-.4-.5-.4-.8-.1-.3.3-.2.6.1.7l.4-.3zm104.6 214-.2.4c0 .3.2.5.3.8.1-.4.3-.9-.1-1.2zm29.1-140-.1.5.2.7c.2-.4.4-.8 0-1.2zm-75-55.2c.4-.6.4-1 0-1.5v1.5zM167 75.8h-.5l.2.7s.3.1.4 0c.2-.2.2-.5-.1-.7zM88 5.3c-.5.4-.3.8-.2 1.3.5-.4.3-.9.2-1.3zm-58.3 105-.5-.6-.5.2.7.7.3-.2zm146.6-3c.5-.3.3-.8.2-1.2-.5.3-.3.8-.2 1.3zm-166 159 .4.1.8-.2c-.4-.1-.9-.4-1.2 0zm47.2-161.5-.2-.3-.4.1.1.2h.5zm105.4 0v.8-.7zm3.2 124.1v-.3c-.1-.3-.2-.2-.3.2l.3.1zM85 19.2l.7.1H85zm139.3 209.1v.8-.8zm4.3-114.7v-.4l-.2.5.2-.1zm-75-56.5c0-.1.1-.3 0-.4-.1-.3-.2-.2-.3.3l.3.1zm-73-25.3zm-2.1 13 .2-.2v-.4l-.3.1v.4zm118.7 21.6v-.7.7zm38.6 23-.1.7.1-.7zm36.3 33.5h.2v-.5l-.3.1.1.4zm-180-96.6v-.7.7zM70.3 63.7l-.1.7v-.7z" class="st0"/><path d="M8.4 120.7c3.8 1 .4 3 .9 4.7-4.4-2.4-7.3-6.3-10.3-10v-3c3 .5 3 3.8 5.2 5.2l1 1 .2.2-.1-.3-1-1-1.5-3.8.8-.5c2.3 2 4.4 4.2 4.7 7.4l-.2.3.3-.2z" class="st0"/><path d="M-1 108.3c2.2-.5 3.7 2 5.7 1 1.5 2 .2 3-1 3.9l-1 .5-3.7-3.4v-2zM0 160.7l-.5.2-.5-.1v-1c.7-.1 1 .2 1 1zM-1 270.9c.2-.3.4-.4.7-.4l.7.7v.4l-.7.6c-.3 0-.6 0-.7-.3v-1zM281.8 184.1c.2-1.3-.6-1.8-1.9-2.6-1 3-2 6.2-5.7 6.1-3-.1-4.4-2.4-5-5-1.6.7-.8 3-2.7 4a6 6 0 0 0-5.6-2l-2.9-4c1.1-2.4 2.4-4.5 5.3-5.6 2.5 1.8 6 .4 8.8 2.4.8-2.1 2.5-3.7 3-6 .5-1.9 2.9-2.5 4.8-2.6 2.2-.2 4.5 0 6 0 2.1.7 1.4 2.5 3 3.6.7.3 2.1-1.2 2.6-.7 1.3 1.2 1.3 1.9 1.1 2.5-.4 1.5-2 1.7-3 2.7-2 2-4.3 3.9-3.3 7-1.3 1-2.6.7-3.8.9l-.7-.7zM6.5 32c.5-2.9 3.3-1.6 4.5-2.8.3-5.5-6.8-6.7-7-12 5.8-1.7 6.6 3.5 9.5 6 2.8-3.1 6-1.3 8.8 0 1.7-.6 2.2-2.6 4.4-2.3 0 3.3-2 6.6-.6 10.1.6 1.3-1.8 2-1.6 3.4.7 1.6 2.7 1.6 3.7 3.4.2 2 .7 4.3-.5 6.6-4.5 0-1.6-5.4-5.3-6.1-.7 0-.4 1.8-2.4 1.4-5.2-.6-8.2-6.1-13.5-7.6z" class="st0"/><path d="M283.2 164.8c-1.8 1.3-3.4 2.7-6 3-2 .2-4 1.5-5.2 3.6a5.5 5.5 0 0 1-2.5-4.7l9.4-5c.4-.2-.6-2.1 1-3 2.2.4 3.8 2.6 6.6 3.1-.6 2 0 3.7 0 5.5-3 .8-3 .8-3.2-2.4l.2-.3-.3.2zM67.1 11.1c-2.7 2.2.3 6.7-3.5 8.8-1.7-.6-2-2.4-3.5-3.4-4.2-2.6-3.9-6.4 0-9.5 1.2-1 2.5-1.1 3.7 0 1.2.9 2.4 1.8 3.3 4.1zM151 419.3c-1 1-1.9 1-2.6.6a53.8 53.8 0 0 1-1.2-21c.3-.2.6-.4.9-.4l2 .2c-.5 7 2 14 1 20.6zM194.2 324.9c5.4 2.4 9.4 6.8 14.6 8.6.9 1.5 1 2.8.1 4-.3.1-.7.3-1 .2-4-2.2-7.9-4.7-12-6.7-2.5-1.4-2.8-3-1.7-6.1zM276.6 202.2c-1 1-2 1.2-3.4.7-1-.9-.3-2.3-1.1-3.4-2.6-1.4-6.2-1-7.8-4.6.8-2.3 2.3-3.3 4.5-1.7 2 1.4 4.5 1.6 6.9 2.8l1.6 5.6-.7.6zM184.3 58.9l.1 2.4c-1.3 1.2-2.6 1.1-4 .3 1.4-3 2.6-6.2 5-8.6 5-.6 5.3-.4 5.2 5.1-1.1 1.5-3 2-4.8 2.7l-1.5-2-.2-.2.2.3zM217 61c.4 2 4.3 1 3.4 4.1-2.7 3.5-4.8-1.5-7.4-.3-1.1-2.8-1.5-5.2 1.7-6 2.3-.6 1.2-4.1 4-4 2.6 3.2 2.5 3.8-1.6 6.2zM242.3 219.4c.6 1.8 1 3.4-.2 4.2-1.6 1-3.6 1.6-5.4 2.1-1.1.3-2-.7-2.4-1.6-.5-1-.5-2.3-1.2-3.2-.4-.6-2.1-.2-1.8-2.3 3.5.8 7.2.4 11 .8zM4.9 137.8c.2-1.1-.1-2.4.8-3.7 3.5-.7 7.2-.3 11-.2-.3 3.2-2 4.4-4.4 4.5l-6.7.1-.7-.7zM235.2 249c3.2.4 5 1.7 5.4 4.9l-3.8 2.6c-2.1.5-3.2-.9-4.4-1.2-1.1-3.2.3-4.8 2.8-6.3zM234.7 67c.4 3.1 3 4 2.8 6.7-2 1.4-4 3.1-7.6 2.6.6-3.5 2.2-6 4.8-9.4zM261.4 106.5c4.1-2.2 5.3-2.1 8.4.5-.2 2-2.3 2.8-2.5 4.4-4.6.6-3.6-3.6-6-4.9zM118.3 16.8c-1.8-3-.4-11.2 2.5-16.4 1.1.2 1.4 1.1 1.2 1.9-1.3 4.7-1 9.8-3.7 14.5zM231.4 242.4c-1.9-1.2-2.4-2.9-3.4-4-.5-2 .7-3.3 1.6-4.7 4.7 1.2 5 3.2 1.8 8.7zM245.7 190.2c.5 1.2-1 2.3-.3 3.8.5 1-.7 1.7-1.8 1.8-1 0-2-1-1.8-1.5 1.2-2.6-1-3-2.4-4.1-1.1-.8-1.3-1.9-.8-3.3 1.5-.9 2.7-1 3.3 1.2.5 2 2.9.6 3.8 2.1zM227 71.2c-3.4-2.8-3.3-5.7.4-8.3 1 1.9 1.3 4 3.2 5.4-1 1.9-1 3.8-2.2 5.3l-.8-.6c-.1-.6-1-1-.6-1.8.6-.5 1-1.2.5-2.1l-.6 2zM186 27.4c-1.4-.4-1.4 1-2 1.8-1 1-2 1.3-3.3.9-1.2-.5-1.9-1.5-1.7-2.9.1-1.3 1-2.1 2.3-2.4l4.4-.9c1.2.7.8 1.8 1 2.8l-.6.7zM294.4 155.8a9 9 0 0 1-2.5-5.3c2.5-.2 5-1.3 7.1 1.8-1.1 1.4-1.8 3.4-4.6 3.5zM257.4 181.8c-1 3.6-4.1 2.8-6 3.9-1.9-.5-2.1-1.9-1.3-2.8 1.9-2 4.3-2.3 7.3-1zM211.4 54.3c-.1 4.3-.1 4.3-3.8 4.3-1-1.3-.7-2.8-.3-4.3 1.4-1 2.7-1 4 0zM187.5 313.5c1.5-.8 2.6-.8 4 0 .5 1.9.7 3.7-2 4.8-2.4-.7-2.5-2.5-2-4.8zM234.2 53.6c-1.5-1.6-4.8.2-5.2-3.4 1.8-1.1 3.5-3 6.2-.4l-1 3.8zM241.9 72c1.6-3.5 1.6-3.5 5.8-2.2-2 4.2-2.4 4.4-5.8 2.2zM6.9 133c-2.2-.2-3-1.5-3.8-2.7 0-1.6 1-2.5 1.6-3.5 2.5 0 3.1 1.7 2.2 6.2zM34.4 18.3c.4 2.5-1 3.5-2.5 4.4-2.5-1-1.8-2.8-1.7-4.5 1.6-1 3-.9 4.2 0zM237 80.9c-2.5-.5-2-2.3-1.6-4 1.3-1 2.6-2.1 5-1.4l-2.6 4.7a8 8 0 0 0-.7.7zM228.3 216.5c-2.1-.6-2.7-1.8-2.3-3.6 1.2-1.3 2.6-1 3.9-.4.8 1.9 0 3-1.6 4zM246.7 210.6c.1 2-1 2.7-2.5 2.8-1.5 0-2.5-.8-2.6-2.7 1.7-1 3.4-1 5-.1zM239 232.8c-3.3-2.2-.2-4-.6-6.3 2.8 2.9 2.8 2.9.7 6.3zM200.6 55c1.4.7 1.9 1.8 1.4 3.3-1.4 1.3-2.3 1-4-1.9.6-1 1.6-1.2 2.6-1.5zM22.6 101.8c.3-1.3-.4-2.8 1-3.8 1.5 0 2.2.7 2.5 2-.3 1.6-1.4 2.3-2.8 2.5l-.7-.7zM47.1 75.4c-.9 0-1.4-.6-1.4-1.6 0-1.3.9-1.8 2.1-1.6 1.1.2 1.3 1 1.2 1.9 0 1-.7 1.4-1.9 1.3zM276 206c-.3 1-1.1 1.3-2 1.1-1.4-.2-1.5-1.3-1.2-2.3.4-1 1.3-1 2.2-.8 1 .3 1.1 1.1 1 2zM198.5 254c.9 3.1 0 4-2.5 3.3-.5-2 .6-2.5 2.5-3.3zM33 70c.8 3 0 3.8-2.6 3.1-.4-2 .5-2.6 2.7-3zM270.2 189.7c1.9-1.7 3.2-1.6 4.8-.4-1.2 2.2-2.6 1.7-4.8.4zM201.7 275c1.6 0 2.4.9 2.3 2.6-3.1.5-3.1.5-2.3-2.6zM19 96.5c.4-1 1-1.6 2-1.6 1.6.7 1 1.8.8 2.8-1.5.6-2.2 0-2.9-1.2zM55.5 78.3c.7 1.4.6 2.7.7 4.3-2.6-1.6-2.6-1.6-.7-4.3zM221.7 56.7c.2-2.4 1.3-3.2 3-3.8 1.2 2.7-.6 3.1-3 3.8zM286.1 157.5c2.9.3 3.4 1.3 3.2 3.1-2.4.3-2.2-1.4-3.2-3z" class="st0"/><path d="M277.3 201.6c2.7.5 2 1.9 1.2 3.4-2.2-.2-1.6-1.8-2-2.8l.8-.6zM95.1 20.5c1.3 1 2.4 2 1.7 3.8-1.3.8-1.4-1.9-2.8-1l-.6-.8 1-1.4.7-.6zM192.6 296.5c-.1.7-.4 1-1 1-.8 0-1.1-.6-1-1.2.2-.5.7-.9 1.2-.6.5.1 1 .4.8.8zM123.1 22.8c-.6.1-1-.2-1.1-.6-.2-.7 0-1.3 1-1.3.5 0 .8.4.9.9.1.6-.4.8-.8 1zM122.5 59.6c.2-.8.3-1.7 1.5-1.7.5 0 1 .4 1 1 0 1-1 1.2-1.8 1.4l-.7-.7zM244.7 116.6c.6 0 .9.3 1 .8 0 .8-.5 1.2-1.2 1-.5 0-1-.4-.8-1 .1-.5.4-.8 1-.8zM102 23c-.1.5-.4.9-1 .8-.8 0-1-.6-.9-1.3.1-.4.6-.8 1.2-.6.4.2.9.5.7 1zM189.5 243c0 .6-.4 1-.9 1-.8.1-1.2-.4-1-1.2 0-.4.4-.8 1-.7.5.1.8.4.9 1zM31 102.5c-.1.7-.4 1.2-1.2 1.4-.4-1.5-.4-1.5 1.2-1.4zM121.5 34.9c.8-1.2 2-.9 3.2-1.1l.6.8c-.8 1-2 .8-3.1 1l-.7-.7zM261 101.3c.4.9.5 1.3 0 1.6-.4.3-.9.5-1.4-.2-.2-1 .6-1.1 1.5-1.4zM76 13c1.3.2 1.8.4 1.7 1.3-.9.4-1.2-.1-1.7-1.4zM96 31c1.5.3 2.5.3 1.5 2-.7-.3-1.2-.5-1.5-2zM98.2 42c1.2.8.9 2.1 1.1 3.2l-.7.6h-.3l-.7-.7v-2.3l.6-.7zM191.2 41.8c0 .7-.3 1.3-1 1.3-.6 0-.9-.6-.6-1 .3-.8 1-1 1.6-.3zM14.1 111.6c.7.6.6 1 0 1.6-.7-.6-.6-1 0-1.6zM64.6 447.9c0-.5-.1-1 .4-1.5 1 .8.4 1.1-.4 1.4zM65.1 429.6c.6.5.7 1 0 1.5-.6-.5-.6-1 0-1.5zM64.1 405.3l.2.4c0 .2-.2.3-.3.4 0-.1-.2-.3-.1-.4l.2-.4zM246 198.5c.8.6 1.2 1.3.4 2.1-.9-.1-.9-.9-1-1.5l.7-.6zM255.4 102.7l-.5.1.1-.4zM64.5 421.2c-.8-.7-1-1.5 0-2.2h.1v2l-.1.2zM271.3 106.8l.1.4-.2.3-.2-.4.3-.3zM88.5 603.2l.4-1.3c.8.7 0 1-.4 1.4zM66.5 629.9c-.1-1 0-1.8.9-2.3l.6.7c0 .8-.2 1.6-1.2 1.9l-.3-.3zM19.5 268.5c.1-.6.1-1.4 1-1.5.8.9.4 1.5-.3 2.1l-.7-.6zM10.1 143c1-1.2 1.8-1.2 2.8 0l-.7.6h-1.3l-.8-.7zM16.3 272.5c-.2-.1-.6-.3-.6-.5l.4-.8c.2.2.5.3.5.5 0 .3-.2.5-.3.8zM63.8 43c.5-.7 1-.7 1.6 0-.6.6-1 .6-1.6 0zM27.6 124c.7.5.7 1 0 1.5-.7-.5-.6-1 0-1.6zM47.4 77.7c.7.5.7 1 0 1.5-.7-.5-.7-1 0-1.5zM191.1 28.8l.2.4-.2.4-.2-.5.2-.3zM62.2 700.2c-.2-.3-.8-.5-.1-1l.6.5-.5.5zM282.5 184.8c-.3.3-.6.8-1 .4-.5-.5 0-.8.3-1.1l.7.7zM65.4 454.3c-.3-.3-.9-.6-.2-1l.7.5-.5.5zM89.3 611l-.3.3-.2-.4.3-.2.2.3zM65 475h.3c.2.1.2.3-.2.5l-.3-.3.2-.3zM65.8 470.7l-.7.4c0-.3.2-.5.3-.8l.4.4z" class="st0"/><path d="m66.5 631.2-.3-1 .3-.3.3.3v.7l-.3.3zM57.9 320l-.3-.1c0-.2.2-.3.3-.4l.3.3-.3.2zM22.2 265c-.5.8-1.1.8-1.7 0l.7-.6h.3l.7.6zM20.2 269.1c-.3.4-.7.8-1.1.4-.4-.4 0-.7.4-1l.7.6zM14.7 273.9l.3.3c0 .3-.2.2-.5-.1l.2-.2zM64.6 447.8l-.3.3.3-.2zM65.1 441l.1.3-.2-.1zM244.4 216.7v.3c-.2.2-.4.2-.6-.2l.3-.2.3.1zM197.2 237.2h.3c.2.2.2.4-.2.6l-.3-.3.2-.3zM194.4 240.3c-.4-.3-.8-.6-.4-1s.8 0 1 .4l-.6.6zM60.8 324.7c-.6.8-1.2.8-1.8 0l.8-.7h.2l.8.7zM190.3 258.9v.3c-.2.2-.5.2-.6-.2l.3-.2.3.1zM195.5 251.7v.3c-.2.2-.5.2-.6-.2l.3-.3.3.2zM156 340.3l-.2.3-.4-.4.3-.2.3.3zM188.2 45.9v.3c-.2.2-.4.2-.6-.2l.3-.3.3.2zM100.7 43.8c-.4-.3-.8-.7-.4-1 .4-.5.8 0 1 .3l-.6.7zM103.6 37l-.1-.3h.3zM96.5 36c.3-.4.7-.9 1-.5.5.4 0 .8-.3 1l-.7-.6zM117.4 56.2v.3c-.2.2-.4.2-.6-.2l.3-.3.3.2zM118.3 48.4l-.3-.2.3-.4.3.3-.3.3zM153 16.6l.3-.3.2.2-.3.3-.2-.2zM133.7 7.7h.3c.2.2.2.4-.2.6l-.3-.3.2-.3zM93.6 1.1l.4-.3.2.2-.3.4-.3-.3zM84.4 1.3c.3-.8.7-.7 1.2-.2l-.4.3-.9-.2zM30.6 126.1l-1 1-.8-.6 1.1-1 .7.6z" class="st0"/><path d="M29.9 125.4c.3-.3.6-.8 1-.4.5.5 0 .8-.3 1.1l-.7-.7zM41.3 123c-.3-.3-.8-.6-.3-1 .4-.4.7 0 1 .3l-.7.7zM37.2 122.4c.6-.9 1.1-.8 1.7 0l-.7.6h-.3l-.7-.6zM37.9 118.9c-.3.3-.7.8-1.1.4-.4-.4 0-.8.4-1l.7.6zM261.1 118.8c0-.3-.2-.5-.3-.8l.8.3a9 9 0 0 1-.5.5zM12.9 143l1 1-.7.6h-.3l-.7-.6v-.4l.7-.7zM292.5 134l.3-.4.2.2-.3.3-.2-.2zM285 132.3v.3c-.2.3-.4.2-.6-.2l.3-.2.3.1zM261 97.3v.3c-.2.3-.4.2-.5-.1l.3-.3.3.1zM40 95.6c.3.3.7.6.3 1-.4.5-.7 0-1-.3l.6-.7zM45.5 96.3c-.3-.3-.8-.7-.4-1 .4-.5.8 0 1 .3l-.6.7zM54.5 86c-.3.3-.6.8-1 .4-.5-.4 0-.8.3-1 .3.1.5.4.7.6zM57 76.8v.2c-.2.3-.4.2-.6-.1l.3-.3.3.2zM209 64.4v.3c-.2.2-.4.2-.6-.2l.3-.2.3.1zM263 102.3l.2.3-.3.3c-.1-.1-.3-.2-.2-.3l.2-.3zM4.2 160.7l-.5.2-.5-.2c0-.7.2-1 1-1 .2.4.2.7 0 1zM1.9 157.1l-.2.3-.4-.3.3-.3.3.3zM4.2 154.6c.2.3.2.7 0 1-.5 0-1 0-.8-.7l.8-.3zM5.2 153.6c0 .7-.2 1-1 1 0-.8.3-1 1-1zM2.2 152.6c.3-.2.6-.2 1 0 0 .4-.1.9-.7.7-.2 0-.2-.5-.3-.7zM2 151.5c.3.4.3.7 0 1-.4 0-.8 0-.7-.7l.8-.3zM91.4 302.5c.3 0 .6-.2.8-.3l-.3.8-.5-.5zM90.9 299.4c.2.3.8.6.2 1l-.7-.5.5-.5zM90.6 298.6v-1c.3.2.7.2.7.4.2.5-.2.6-.7.6zM96.9 281.1l.3.4-.4-.3zM234.6 108c.4.2.8.6.4 1s-.8 0-1-.4l.6-.7zM237.2 107.7l-.2.3a43 43 0 0 1-.4-.3l.3-.3.3.3zM159.7 51.4c.3.2.8.6.4 1-.5.4-.8 0-1.1-.4l.7-.6zM74.7 34.6v.3c-.2.2-.4.1-.6-.2l.3-.3.3.2zM76.7 34.5c-.3-.3-.8-.6-.4-1 .5-.4.8 0 1.1.4l-.7.6zM74.3 31.4h.3c.3.2.2.4-.1.6l-.3-.3.1-.3zM77.1 30.1c.3-.2.7-.2 1 0 0 .5 0 .9-.7.7l-.3-.7zM78.2 30a.8.8 0 0 1 0-1c.7 0 1 .3 1 1l-.6.2-.4-.2zM227.3 162.5c.7.6 1.2 1.3.4 2.1-1-.1-.9-.9-1-1.5l.6-.6zM51 105.2l-.5.1-.4-.1c0-.5 0-1 .6-.8.2 0 .2.5.3.8zM152.4 105.9c.7.6 1.1 1.3.3 2.1-.9-.1-.9-.9-1-1.5l.7-.6zM70.8 47.5l-1 1c-1.9-.5-1.2-1.8-1-3 1.8-.4 2.4.3 2 2zM47 113.5c.3-.2.6-.2.9 0 .2.3.2.6 0 1-.7 0-1-.3-1-1z" class="st0"/></svg>